<?xml version="1.0" encoding="UTF-8"?>
<svg id="Layer_2" data-name="Layer 2" xmlns="http://www.w3.org/2000/svg" viewBox="0 0 143.79 147.2">
  <defs>
    <style>
      .cls-1 {
        fill: #f3b742;
      }

      .cls-1, .cls-2 {
        stroke-width: 0px;
      }

      .cls-2 {
        fill: #26284a;
      }
    </style>
  </defs>
  <g id="OBJECTS">
    <g>
      <polygon class="cls-2" points="103.51 86.08 103.51 2.68 68.05 32.2 68.05 55.74 103.51 86.08"/>
      <polygon class="cls-2" points="0 86.19 0 91.32 103.51 5.12 103.51 0 0 86.19"/>
      <rect class="cls-2" x="12.79" y="88.17" width="1.23" height="38.38"/>
      <rect class="cls-2" x="11.22" y="77.99" width="4.37" height="10.19"/>
      <path class="cls-2" d="M12.63,135.23c-1.59-.79-2.26-2.7-1.48-4.27.57-1.14,1.74-1.77,2.95-1.73-1.84-.67-3.92.11-4.81,1.91-.96,1.93-.17,4.26,1.76,5.21,1.83.91,4.02.23,5.05-1.49-.94.76-2.29.95-3.46.37Z"/>
      <circle class="cls-2" cx="13.41" cy="127.79" r="2.37"/>
      <path class="cls-2" d="M27.53,143.49c11.9-1.07,23.89-4.24,35.46-9.37V62.57l-35.46,30.15v50.76Z"/>
      <path class="cls-1" d="M68.05,131.73c12.65-6.3,24.71-14.93,35.46-25.71v-13.3l-35.46-30.15v69.16Z"/>
      <path class="cls-1" d="M108.57,100.66c5.22-5.8,10.09-12.12,14.5-18.97,10.64-16.52,17.48-34.89,20.72-52.42L108.57,0v100.66Z"/>
      <g>
        <path class="cls-2" d="M143.79,76.54c-37.5,66.94-106.1,70.65-106.1,70.65h25.3s44.01-2.39,80.8-37.74v-32.92Z"/>
        <path class="cls-2" d="M77.2,147.2h66.59v-25.85c-33.01,24.02-66.59,25.85-66.59,25.85Z"/>
      </g>
    </g>
  </g>
</svg>